{"title":"Insidious: Chapter 3 (2015) HC HDRip XViD -={SPARROW}=-","uid":12033818,"size":620566934,"categoryP":"video","categoryS":"movies","magnet":"?xt=urn:btih:2ce1965a06fa153698d9d795f180cb1986c36b4b&amp;dn=Insidious%3A+Chapter+3+%282015%29+HC+HDRip+XViD+-%3D%7BSPARROW%7D%3D-&amp;tr=udp%3A%2F%2Ftracker.openbittorrent.com%3A80&amp;tr=udp%3A%2F%2Fopen.demonii.com%3A1337&amp;tr=udp%3A%2F%2Ftracker.coppersurfer.tk%3A6969&amp;tr=udp%3A%2F%2Fexodus.desync.com%3A6969","seeders":8,"leechers":6,"uploader":"SS132203","files":3,"time":1434655232,"description":"Insidious: Chapter 3 (2015) HC HDRip XViD -={SPARROW}=-\n &lt;a href=&quot;\nhttp://imgsparrow.co/image/Q4&quot; rel=&quot;nofollow&quot; target=&quot;_NEW&quot;&gt;\nhttp://imgsparrow.co/image/Q4&lt;/a&gt;\n &lt;a href=&quot;\nhttp://imgsparrow.co/image/Et&quot; rel=&quot;nofollow&quot; target=&quot;_NEW&quot;&gt;\nhttp://imgsparrow.co/image/Et&lt;/a&gt;\n\nInfo : - \n\nSOURCE: MP4Ba (Thanks a Ton)\n\nFormat                      : AVI\nFormat/Info                 : Audio Video Interleave\nFile size                   : 588 MiB\nDuration                    : 1h 37mn\nOverall bit rate            : 844 Kbps\n\nVideo\nID                          : 0\nFormat                      : MPEG-4 Visual\nFormat profile              : Advanced Simple@L4\nFormat settings, BVOP       : 2\nFormat settings, QPel       : No\nFormat settings, GMC        : No warppoints\nFormat settings, Matrix     : Default (H.263)\nCodec ID                    : DIVX\nCodec ID/Info               : Project Mayo\nCodec ID/Hint               : DivX 4\nDuration                    : 1h 37mn\nBit rate                    : 703 Kbps\nWidth                       : 640 pixels\nHeight                      : 266 pixels\nDisplay aspect ratio        : 2.40:1\nFrame rate                  : 23.976 fps\nColor space                 : YUV\nChroma subsampling          : 4:2:0\nBit depth                   : 8 bits\nScan type                   : Progressive\nCompression mode            : Lossy\nBits/(Pixel*Frame)          : 0.172\nStream size                 : 490 MiB (83%)\nWriting library             : XviD 64\n\nAudio\nID                          : 1\nFormat                      : MPEG Audio\nFormat version              : Version 1\nFormat profile              : Layer 3\nCodec ID                    : 55\nCodec ID/Hint               : MP3\nDuration                    : 1h 37mn\nBit rate mode               : Constant\nBit rate                    : 128 Kbps\nChannel(s)                  : 2 channels\nSampling rate               : 44.1 KHz\nCompression mode            : Lossy\nStream size                 : 89.2 MiB (15%)\nAlignment                   : Aligned on interleaves\nInterleave, duration        : 26 ms (0.63 video frame)\n\nScreens : - \n &lt;a href=&quot;\nhttp://imgsparrow.co/image/QH&quot; rel=&quot;nofollow&quot; target=&quot;_NEW&quot;&gt;\nhttp://imgsparrow.co/image/QH&lt;/a&gt; &lt;a href=&quot;\nhttp://imgsparrow.co/image/QT&quot; rel=&quot;nofollow&quot; target=&quot;_NEW&quot;&gt;\nhttp://imgsparrow.co/image/QT&lt;/a&gt; &lt;a href=&quot;\nhttp://imgsparrow.co/image/Qb&quot; rel=&quot;nofollow&quot; target=&quot;_NEW&quot;&gt;\nhttp://imgsparrow.co/image/Qb&lt;/a&gt; &lt;a href=&quot;\nhttp://imgsparrow.co/image/Qh&quot; rel=&quot;nofollow&quot; target=&quot;_NEW&quot;&gt;\nhttp://imgsparrow.co/image/Qh&lt;/a&gt; &lt;a href=&quot;\nhttp://imgsparrow.co/image/Qj&quot; rel=&quot;nofollow&quot; target=&quot;_NEW&quot;&gt;\nhttp://imgsparrow.co/image/Qj&lt;/a&gt; &lt;a href=&quot;\nhttp://imgsparrow.co/image/Qr&quot; rel=&quot;nofollow&quot; target=&quot;_NEW&quot;&gt;\nhttp://imgsparrow.co/image/Qr&lt;/a&gt; &lt;a href=&quot;\nhttp://imgsparrow.co/image/QD&quot; rel=&quot;nofollow&quot; target=&quot;_NEW&quot;&gt;\nhttp://imgsparrow.co/image/QD&lt;/a&gt; &lt;a href=&quot;\nhttp://imgsparrow.co/image/QG&quot; rel=&quot;nofollow&quot; target=&quot;_NEW&quot;&gt;\nhttp://imgsparrow.co/image/QG&lt;/a&gt; &lt;a href=&quot;\nhttp://imgsparrow.co/image/Qe&quot; rel=&quot;nofollow&quot; target=&quot;_NEW&quot;&gt;\nhttp://imgsparrow.co/image/Qe&lt;/a&gt; &lt;a href=&quot;\nhttp://imgsparrow.co/image/Qg&quot; rel=&quot;nofollow&quot; target=&quot;_NEW&quot;&gt;\nhttp://imgsparrow.co/image/Qg&lt;/a&gt;\n &lt;a href=&quot;\nhttp://imgsparrow.co/image/N2&quot; rel=&quot;nofollow&quot; target=&quot;_NEW&quot;&gt;\nhttp://imgsparrow.co/image/N2&lt;/a&gt;","torrent":{"xt":"urn:btih:2ce1965a06fa153698d9d795f180cb1986c36b4b","amp;dn":"Insidious%3A+Chapter+3+%282015%29+HC+HDRip+XViD+-%3D%7BSPARROW%7D%3D-","amp;tr":["udp%3A%2F%2Ftracker.openbittorrent.com%3A80","udp%3A%2F%2Fopen.demonii.com%3A1337","udp%3A%2F%2Ftracker.coppersurfer.tk%3A6969","udp%3A%2F%2Fexodus.desync.com%3A6969"],"infoHash":"2ce1965a06fa153698d9d795f180cb1986c36b4b","infoHashBuffer":{"type":"Buffer","data":[44,225,150,90,6,250,21,54,152,217,215,149,241,128,203,25,134,195,107,75]},"announce":[],"urlList":[]}}